<?xml version="1.0" standalone="no"?>
<!DOCTYPE svg PUBLIC "-//W3C//DTD SVG 20010904//EN"
 "http://www.w3.org/TR/2001/REC-SVG-20010904/DTD/svg10.dtd">
<svg version="1.0" xmlns="http://www.w3.org/2000/svg"
 width="144.000000pt" height="144.000000pt" viewBox="0 0 144.000000 144.000000"
 preserveAspectRatio="xMidYMid meet">
<metadata>
Created by potrace 1.11, written by Peter Selinger 2001-2013
</metadata>
<g transform="translate(0.000000,144.000000) scale(0.100000,-0.100000)"
fill="#000000" stroke="none">
<path d="M0 720 l0 -720 720 0 720 0 0 720 0 720 -720 0 -720 0 0 -720z m460
139 l0 -70 22 15 c30 22 81 20 109 -3 22 -18 24 -28 27 -131 l4 -111 -34 3
-33 3 -3 89 c-4 112 -20 137 -68 102 -15 -12 -20 -30 -24 -103 l-5 -88 -32 -3
-33 -3 0 185 0 186 35 0 35 0 0 -71z m680 0 l0 -70 22 15 c30 22 81 20 109 -3
22 -18 24 -28 27 -131 l4 -111 -34 3 -33 3 -3 89 c-4 112 -20 137 -68 102 -15
-12 -20 -30 -24 -103 l-5 -88 -32 -3 -33 -3 0 185 0 186 35 0 35 0 0 -71z
m-835 -69 c0 -22 -4 -25 -31 -22 -47 4 -79 -26 -79 -76 0 -57 28 -86 77 -79
36 5 38 4 38 -24 0 -29 0 -29 -61 -29 -53 0 -64 3 -89 28 -54 55 -49 156 12
207 26 22 39 25 82 23 47 -3 51 -5 51 -28z m680 0 c0 -22 -4 -25 -31 -22 -47
4 -79 -26 -79 -76 0 -57 28 -86 77 -79 36 5 38 4 38 -24 0 -29 0 -29 -61 -29
-53 0 -64 3 -89 28 -55 55 -49 156 12 207 26 22 39 25 82 23 47 -3 51 -5 51
-28z m-236 -177 c12 -23 -4 -53 -29 -53 -25 0 -41 29 -29 52 12 23 45 23 58 1z"/>
</g>
</svg>
